<?xml version="1.0" standalone="no"?>
<!DOCTYPE svg PUBLIC "-//W3C//DTD SVG 20010904//EN"
 "http://www.w3.org/TR/2001/REC-SVG-20010904/DTD/svg10.dtd">
<svg version="1.0" xmlns="http://www.w3.org/2000/svg"
 width="225.000000pt" height="225.000000pt" viewBox="0 0 225.000000 225.000000"
 preserveAspectRatio="xMidYMid meet">
<metadata>
Created by potrace 1.10, written by Peter Selinger 2001-2011
</metadata>
<g transform="translate(0.000000,225.000000) scale(0.100000,-0.100000)"
fill="#000000" stroke="none">
<path d="M584 1846 c-296 -138 -549 -256 -562 -261 -19 -9 -4 -18 125 -75 l148 -66 3 -131 c2 -125 2 -132 -18 -138 -69 -22 -124 -111 -124 -200 0 -89 55 -178 124 -200 11 -3 20 -11 20 -18 0 -6 -32 -84 -70 -174 -95 -218 -103 -295 -38 -368 81 -93 308 -82 382 18 17 23 21 43 21 105 -1 73 -4 85 -74 245 -40 93 -72 169 -70 171 2 1 21 13 42 25 46 28 82 80 98 143 25 94 -28 214 -111 248 l-30 12 0 94 0 94 68 -33 c132 -67 596 -280 607 -280 8 0 1095 501 1122 517 1 1 -1053 493 -1097 512 -25 11 -73 -9 -566 -240z m1045 -27 c273 -127 500 -235 505 -240 6 -5 -34 -29 -95 -57 -820 -385 -909 -424 -936 -414 -16 5 -158 71 -318 145 -159 74 -300 138 -311 141 -16 5 -27 0 -43 -20 -17 -22 -21 -41 -21 -105 0 -67 3 -81 24 -106 13 -16 35 -34 48 -41 33 -18 65 -70 73 -118 11 -70 -9 -119 -76 -185 -34 -33 -59 -67 -59 -79 0 -11 30 -91 67 -178 77 -181 88 -244 54 -299 -31 -50 -74 -67 -166 -67 -85 0 -123 13 -160 54 -16 17 -20 36 -20 89 0 59 8 83 72 234 40 96 68 177 66 188 -3 10 -28 38 -56 61 -115 97 -114 199 3 309 l60 55 0 120 c0 74 -5 128 -13 144 -8 17 -43 40 -109 72 -54 26 -98 51 -98 56 0 5 30 23 68 39 81 37 199 92 607 284 170 81 316 147 324 148 8 1 238 -103 510 -230z"/>
<path d="M1437 970 l-327 -148 -178 83 -177 82 -7 -54 c-9 -68 -39 -134 -83 -188 l-34 -42 44 -100 c43 -98 63 -175 68 -263 l2 -44 66 -22 c106 -36 205 -47 351 -41 155 6 243 28 359 88 97 50 187 142 229 231 l29 63 3 253 c2 164 -1 252 -7 251 -5 -1 -157 -68 -338 -149z m303 -132 c0 -206 -1 -215 -25 -267 -47 -100 -117 -168 -236 -227 -91 -46 -181 -66 -330 -71 -139 -6 -257 9 -336 42 -29 12 -33 19 -33 52 0 58 -25 149 -64 242 l-36 83 38 62 c22 33 47 85 56 114 10 28 20 52 23 52 3 0 70 -29 148 -65 78 -36 152 -65 166 -65 13 0 155 58 314 130 160 71 296 129 303 129 9 1 12 -48 12 -211z"/>
</g>
</svg>
