<?xml version="1.0" standalone="no"?>
<!DOCTYPE svg PUBLIC "-//W3C//DTD SVG 20010904//EN"
 "http://www.w3.org/TR/2001/REC-SVG-20010904/DTD/svg10.dtd">
<svg version="1.0" xmlns="http://www.w3.org/2000/svg"
 width="225.000000pt" height="225.000000pt" viewBox="0 0 225.000000 225.000000"
 preserveAspectRatio="xMidYMid meet">
<metadata>
Created by potrace 1.10, written by Peter Selinger 2001-2011
</metadata>
<g transform="translate(0.000000,225.000000) scale(0.100000,-0.100000)"
fill="#000000" stroke="none">
<path d="M862 2141 c-178 -66 -289 -259 -252 -438 19 -88 48 -142 115 -209 219 -221 597 -100 654 210 31 166 -61 344 -216 421 -78 39 -219 46 -301 16z m296 -61 c70 -37 120 -89 154 -159 20 -39 23 -62 23 -151 0 -95 -3 -110 -27 -156 -49 -93 -126 -154 -231 -180 -245 -63 -476 153 -427 400 26 131 106 223 238 273 24 8 67 12 122 10 74 -3 93 -7 148 -37z"/>
<path d="M953 2070 c-10 -12 -41 -45 -70 -75 -68 -71 -83 -117 -59 -180 17 -43 77 -105 102 -105 6 0 17 -7 24 -15 10 -12 5 -13 -37 -9 -58 7 -82 -12 -90 -73 -5 -35 -2 -42 27 -66 17 -15 40 -27 50 -27 10 0 28 -13 40 -29 11 -17 30 -33 41 -36 24 -8 66 17 80 49 6 12 24 30 40 40 16 9 41 37 55 62 46 77 25 154 -58 214 -31 23 -36 30 -21 30 28 0 69 44 77 82 5 26 1 37 -21 60 -15 15 -33 28 -40 28 -7 0 -27 16 -44 35 -37 40 -70 45 -96 15z m67 -49 c0 -26 4 -29 45 -35 53 -8 58 -15 49 -62 -6 -30 -10 -35 -28 -30 -63 18 -92 17 -114 -1 -34 -27 -20 -47 54 -79 81 -34 114 -71 114 -126 0 -22 -7 -52 -16 -68 -18 -29 -62 -60 -87 -60 -12 0 -14 -8 -10 -35 5 -34 5 -35 -26 -35 -28 0 -31 3 -31 33 0 31 -3 33 -35 35 -61 4 -87 19 -80 45 4 12 9 30 12 40 3 13 10 16 21 12 68 -28 136 -25 153 7 14 26 -10 53 -60 69 -81 26 -131 75 -131 129 0 43 31 89 74 110 38 18 42 23 38 50 -4 28 -2 30 27 30 28 0 31 -3 31 -29z"/>
<path d="M1850 1740 c-87 -15 -194 -82 -226 -143 -9 -16 -15 -15 -78 13 -38 17 -69 30 -70 28 -2 -2 -19 -38 -39 -81 -142 -304 -534 -377 -783 -144 -55 51 -78 85 -131 195 -2 6 -86 -39 -153 -83 -311 -200 -423 -533 -276 -822 44 -86 116 -176 189 -233 l57 -45 0 -141 c0 -105 4 -145 14 -160 13 -17 29 -19 141 -22 189 -5 205 2 205 100 0 53 2 59 17 53 42 -16 218 -35 323 -35 63 0 156 7 205 15 50 8 93 15 98 15 4 0 7 -25 6 -57 -3 -86 10 -93 176 -93 183 0 177 -5 176 170 l-1 135 49 33 c27 18 75 60 106 93 l56 59 148 0 c101 0 151 4 159 12 9 9 12 78 12 250 0 278 8 262 -122 257 l-80 -3 -24 63 c-13 35 -42 90 -63 122 l-39 58 74 171 c41 94 74 177 74 184 0 7 -6 18 -12 24 -18 14 -135 22 -188 12z m145 -51 c4 -5 -23 -79 -59 -164 -36 -84 -66 -161 -66 -171 0 -9 20 -51 44 -93 24 -42 50 -93 57 -115 22 -62 55 -83 135 -85 38 -1 72 -5 77 -10 4 -4 6 -99 5 -212 l-3 -204 -140 -5 c-77 -3 -147 -9 -155 -15 -8 -5 -42 -35 -75 -66 -33 -31 -80 -75 -105 -97 l-45 -41 -3 -123 c-3 -99 -6 -125 -20 -136 -20 -15 -205 -17 -233 -2 -13 8 -19 21 -19 45 0 24 -9 44 -27 65 l-28 29 -95 -14 c-122 -19 -278 -19 -404 0 -55 8 -107 15 -117 15 -30 0 -59 -40 -59 -81 0 -61 -16 -69 -136 -69 -58 0 -114 5 -125 10 -17 10 -19 22 -19 138 0 147 2 142 -104 242 -89 84 -143 165 -178 265 -79 227 4 471 219 643 56 45 162 112 176 112 4 0 23 -26 43 -57 110 -172 320 -279 504 -258 178 20 344 133 426 289 30 59 43 65 84 41 45 -26 72 -18 120 31 44 44 98 79 150 95 38 11 168 10 175 -2z"/>
</g>
</svg>
